<svg width="21" height="17" viewBox="0 0 21 17" fill="none" xmlns="http://www.w3.org/2000/svg">
<path d="M18.1075 3.01172C18.1075 2.74343 18.0004 2.4866 17.8107 2.29688C17.621 2.10717 17.3641 2.00007 17.0958 2H3.01184C2.74354 2.00006 2.48672 2.10715 2.297 2.29688C2.10727 2.4866 2.00018 2.74341 2.00012 3.01172V13.0713C2.00012 13.3397 2.10722 13.5973 2.297 13.7871C2.4867 13.9767 2.74365 14.0839 3.01184 14.084H17.0958C17.364 14.0839 17.621 13.9767 17.8107 13.7871C18.0004 13.5973 18.1075 13.3397 18.1075 13.0713V3.01172ZM20.1075 13.0713C20.1075 13.87 19.7904 14.6364 19.2257 15.2012C18.6609 15.766 17.8945 16.0839 17.0958 16.084H3.01184C2.2131 16.0839 1.44675 15.766 0.881958 15.2012C0.317265 14.6363 0.00012207 13.87 0.00012207 13.0713V3.01172C0.000177503 2.21298 0.317161 1.44663 0.881958 0.881836C1.44675 0.317039 2.2131 5.53694e-05 3.01184 0H17.0958C17.8945 7.42445e-05 18.6609 0.317056 19.2257 0.881836C19.7905 1.44663 20.1075 2.213 20.1075 3.01172V13.0713Z" fill="black"/>
<path d="M18.5528 2.17978C19.0123 1.87347 19.6332 1.99761 19.9395 2.45712C20.2459 2.91663 20.1217 3.53748 19.6622 3.84384L10.6085 9.87997C10.2727 10.1038 9.83494 10.1038 9.49911 9.87997L0.445402 3.84384C-0.0141271 3.53749 -0.138294 2.91665 0.168058 2.45712C0.47441 1.99759 1.09525 1.87342 1.55478 2.17978L10.0538 7.84579L18.5528 2.17978Z" fill="black"/>
</svg>
