<svg width="17" height="17" viewBox="0 0 17 17" fill="none" xmlns="http://www.w3.org/2000/svg">
<path d="M5.25 2.5C5.25 2.36739 5.19728 2.24025 5.10352 2.14648C5.00975 2.05272 4.88261 2 4.75 2H2.5C2.36739 2 2.24025 2.05272 2.14648 2.14648C2.05272 2.24025 2 2.36739 2 2.5C2 5.81521 3.31693 8.99466 5.66113 11.3389C8.00534 13.6831 11.1848 15 14.5 15C14.6326 15 14.7597 14.9473 14.8535 14.8535C14.9473 14.7597 15 14.6326 15 14.5V12.25C15 12.1174 14.9473 11.9903 14.8535 11.8965C14.7597 11.8027 14.6326 11.75 14.5 11.75H12.25C12.1724 11.75 12.0958 11.768 12.0264 11.8027C11.9569 11.8374 11.8962 11.8881 11.8496 11.9502L11.8447 11.957L11.5781 12.3037L11.5791 12.3047C11.3382 12.6209 10.997 12.846 10.6113 12.9424C10.2256 13.0387 9.81836 13.0008 9.45703 12.835C9.44924 12.8314 9.44129 12.827 9.43359 12.8232C7.1521 11.7035 5.30525 9.86015 4.18262 7.58008L4.18066 7.57617C4.00366 7.21297 3.95774 6.79943 4.05078 6.40625L4.09277 6.26074C4.20292 5.92715 4.41131 5.63259 4.69238 5.41797L4.69922 5.41309L5.0498 5.15039C5.1119 5.10382 5.16255 5.04306 5.19727 4.97363C5.23198 4.90421 5.25 4.82762 5.25 4.75V2.5ZM7.25 4.75C7.25 5.13811 7.1599 5.52103 6.98633 5.86816C6.83444 6.17194 6.62192 6.44062 6.36328 6.65918L6.25 6.75L6.07324 6.88184C6.97346 8.61315 8.38451 10.024 10.1152 10.9248L10.2549 10.7432C10.4871 10.4358 10.7872 10.186 11.1318 10.0137C11.479 9.8401 11.8619 9.75 12.25 9.75H14.5C15.163 9.75 15.7987 10.0136 16.2676 10.4824C16.7364 10.9513 17 11.587 17 12.25V14.5C17 15.163 16.7364 15.7987 16.2676 16.2676C15.7987 16.7364 15.163 17 14.5 17C10.6544 17 6.96635 15.4722 4.24707 12.7529C1.52779 10.0337 0 6.34564 0 2.5C0 1.83696 0.263581 1.20126 0.732422 0.732422C1.20126 0.263581 1.83696 0 2.5 0H4.75C5.41304 0 6.04874 0.263581 6.51758 0.732422C6.98642 1.20126 7.25 1.83696 7.25 2.5V4.75Z" fill="black"/>
</svg>
